# Rhino

mtllib Paso 1.mtl
usemtl diffuse_Black
v -6.1111111640930176 0 11.840277671813965
v -6.1111111640930176 10 11.840277671813965
v 3.8888888359069824 0 11.840277671813965
v 3.8888888359069824 10 11.840277671813965
v 3.8888888359069824 0 11.840277671813965
v 3.8888888359069824 10 11.840277671813965
v 3.8888888359069824 0 1.8402777910232544
v 3.8888888359069824 10 1.8402777910232544
v 3.8888888359069824 0 1.8402777910232544
v 3.8888888359069824 10 1.8402777910232544
v -6.1111111640930176 0 1.8402777910232544
v -6.1111111640930176 10 1.8402777910232544
v -6.1111111640930176 0 1.8402777910232544
v -6.1111111640930176 10 1.8402777910232544
v -6.1111111640930176 0 11.840277671813965
v -6.1111111640930176 10 11.840277671813965
v -6.1111111640930176 0 11.840277671813965
v 3.8888888359069824 0 11.840277671813965
v 3.8888888359069824 0 1.8402777910232544
v -6.1111111640930176 0 1.8402777910232544
v -6.1111111640930176 10 11.840277671813965
v 3.8888888359069824 10 11.840277671813965
v 3.8888888359069824 10 1.8402777910232544
v -6.1111111640930176 10 1.8402777910232544
vt 0 0
vt 0 0.66666620969772339
vt 0.25 0
vt 0.25 0.66666620969772339
vt 0.25 0
vt 0.25 0.66666620969772339
vt 0.5 0
vt 0.5 0.66666620969772339
vt 0.5 0
vt 0.5 0.66666620969772339
vt 0.75 0
vt 0.75 0.66666620969772339
vt 0.75 0
vt 0.75 0.66666620969772339
vt 1 0
vt 1 0.66666620969772339
vt 0 1
vt 0.25 1
vt 0.25 0.66666686534881592
vt 0 0.66666686534881592
vt 0.75 0.66666686534881592
vt 1 0.66666686534881592
vt 1 1
vt 0.75 1
vn 0 0 1
vn 0 0 1
vn 0 0 1
vn 0 0 1
vn 1 0 0
vn 1 0 0
vn 1 0 0
vn 1 0 0
vn 0 0 -1
vn 0 0 -1
vn 0 0 -1
vn 0 0 -1
vn -1 0 0
vn -1 0 0
vn -1 0 0
vn -1 0 0
vn 0 -1 0
vn 0 -1 0
vn 0 -1 0
vn 0 -1 0
vn 0 1 0
vn 0 1 0
vn 0 1 0
vn 0 1 0
f 1/1/1 3/3/3 4/4/4 2/2/2
f 5/5/5 7/7/7 8/8/8 6/6/6
f 9/9/9 11/11/11 12/12/12 10/10/10
f 13/13/13 15/15/15 16/16/16 14/14/14
f 18/18/18 17/17/17 20/20/20
f 20/20/20 19/19/19 18/18/18
f 22/22/22 24/24/24 21/21/21
f 24/24/24 22/22/22 23/23/23
